<?xml version="1.0" encoding="utf-8"?>
<!DOCTYPE svg PUBLIC "-//W3C//DTD SVG 1.0//EN" "http://www.w3.org/TR/2001/REC-SVG-20010904/DTD/svg10.dtd">
<svg version="1.0" xmlns="http://www.w3.org/2000/svg" width="1024px" height="1024px" viewBox="0 0 1024 1024" preserveAspectRatio="xMidYMid meet">
 <g fill="#fefefe">
  <path d="M0 512 l0 -512 512 0 512 0 0 512 0 512 -512 0 -512 0 0 -512z m473.6 402.6 c1.7 -1 3.6 -2.7 4.3 -3.8 0.7 -1.1 3.8 -15.1 7.1 -31.1 6.9 -34.5 5.9 -32.9 21 -36.6 10.6 -2.7 31.9 -9.7 48.3 -16 8.1 -3.1 12.1 -4.1 16.6 -4.1 l5.8 0 24.7 24.5 c13.6 13.5 25.8 24.8 27.2 25.1 3.3 0.8 7.8 -2 29.1 -18.3 9.9 -7.6 25.1 -19.2 33.7 -25.7 14.5 -11 18.6 -15.2 18.6 -18.9 0 -0.8 -4.9 -13 -11 -27 -9.6 -22.2 -11 -26.3 -11 -31.1 0 -7.2 0.8 -8.9 7.5 -16.6 9.5 -10.8 20.9 -26.5 28.1 -38.7 9 -15.2 8.7 -15 28.9 -13.3 36 3 48.1 3.7 51 2.9 6.6 -1.9 7.7 -4 22.5 -47.9 8.1 -23.9 13.8 -42.4 13.5 -43.6 -1 -4.4 -7.2 -8.6 -45.3 -30.9 -17 -9.9 -16.7 -9.4 -15.8 -27.7 0.7 -14.6 0.3 -16.7 -3.7 -19 -1.7 -1 -15.2 -1.4 -56.7 -1.8 -52.7 -0.5 -54.6 -0.6 -58 -2.6 -5.6 -3.2 -6.5 -6.1 -6.5 -20.9 0 -15.4 1 -18.3 7.5 -20.9 3.6 -1.4 12.4 -1.6 82.6 -1.6 68.6 0 78.9 0.2 82.2 1.6 2.4 1 12.7 10.5 29.2 26.8 23.3 23.1 26.2 25.6 33.3 29.1 7.7 3.8 8 3.9 22.4 4.4 l14.5 0.6 2.1 5.5 c2.8 7.4 11.4 16 20.4 20.3 6.1 2.9 7.7 3.2 15.8 3.2 10.5 0 16.9 -2.2 25 -8.3 18.3 -13.9 21 -35.7 6.3 -51.7 -8.8 -9.7 -25.3 -15.7 -36.8 -13.5 -11.5 2.2 -24.6 10.7 -30.1 19.6 l-2.1 3.4 -15.2 0 -15.3 0 -4.5 -3 c-2.5 -1.6 -14.7 -13.8 -27.2 -27 -22.3 -23.6 -24.8 -25.7 -35 -29.8 -3.7 -1.5 -17.2 -1.7 -146.6 -2.2 -152.3 -0.5 -145.2 -0.3 -152.4 -5.3 -1.6 -1.1 -4 -4.5 -5.4 -7.6 -2.1 -4.5 -2.6 -7.1 -2.7 -13.8 0 -9.5 1.5 -12.5 8.1 -15.8 3.9 -2 6.2 -2 191 -2.3 l187.1 -0.3 3.8 7.8 c7 14.2 20.4 24.7 35.5 27.9 6.1 1.2 7.9 1.2 13.9 0 10 -2.1 18.6 -6.8 25.8 -14.2 14.6 -14.8 18.1 -32.7 10 -49.9 -6.8 -14.2 -20.3 -24.8 -35.6 -28 -18.2 -3.9 -40.3 8.7 -49.7 28.2 l-3.8 7.8 -186.7 -0.1 -186.8 -0.2 -4.3 -2.3 c-6.6 -3.7 -8 -7.3 -7.6 -19.5 0.3 -9.1 0.6 -10.4 3 -13.6 3.2 -4.2 12.6 -9 23.5 -12 7.7 -2.2 9.2 -2.2 98.3 -2.8 l90.5 -0.6 7 -2.3 c16.9 -5.6 24.3 -12.1 64.2 -56.8 19.6 -22.1 23.9 -26.4 27.1 -27.3 2.2 -0.6 17.2 -1 38.2 -0.9 l34.5 0 3.2 6.7 c7.5 15.8 26.6 28.2 43.3 28.2 9.6 0 21.4 -5 30 -12.7 18.5 -16.6 21.1 -41.3 6.4 -61.3 -8.4 -11.4 -21.5 -18.8 -35 -19.7 -19.2 -1.4 -38.9 12.3 -46.5 32 l-2.2 5.7 -31.6 0 c-17.4 0 -34.5 0.5 -38.1 1.1 -9.7 1.5 -16.9 5.9 -25.4 15.3 -57.3 63.9 -59 65.6 -67.3 69.7 -4.6 2.3 -5.7 2.4 -32 2.7 l-27.1 0.3 -6.2 -7.1 c-7 -8.3 -8 -10.3 -8 -17.1 0 -5.4 2.1 -10.5 17.4 -42.3 4.7 -9.8 8.6 -19.1 8.6 -20.5 0 -4.1 -2 -6.2 -18.3 -18.9 -37.8 -29.5 -56.7 -43.2 -59.5 -43.2 -3.9 0 -2.5 -1.1 -49.4 39 -3.6 3 -4.8 3.5 -10.7 3.8 -6.3 0.4 -7.3 0.1 -20.2 -5.7 -15.7 -6.9 -33 -12.8 -47.3 -16.1 -5.9 -1.4 -10.8 -3.1 -12.3 -4.4 -2.1 -1.8 -3.1 -5.8 -8.7 -32.7 -3.5 -16.8 -7 -31.7 -8 -33.1 -0.9 -1.4 -3.3 -3.3 -5.4 -4.2 -3.3 -1.5 -8.3 -1.7 -48.2 -1.4 -41.8 0.3 -44.7 0.4 -47.3 2.2 -1.5 1 -3.4 3.1 -4.2 4.5 -1.1 2.3 -9.5 36.1 -13.6 55.5 -1.9 8.9 -3.3 9.9 -19.7 14.6 -16.3 4.7 -30.6 9.6 -47.1 16.4 -12.7 5.2 -18.6 6.5 -22.1 4.6 -1.3 -0.7 -13.2 -10.3 -26.5 -21.5 -13.3 -11.2 -25.2 -20.6 -26.3 -20.9 -2.9 -0.9 -7.8 1.4 -14.2 6.5 -3 2.5 -15.8 12.5 -28.5 22.4 -29.1 22.6 -33.3 26.2 -35.1 29.7 -1.3 2.5 -1.2 3.3 1 8.5 1.3 3.2 7.9 16.4 14.5 29.4 10.3 20 12.1 24.3 12.1 28.2 0 6.5 -0.8 8 -11.2 21.8 -10.5 13.8 -18.5 26.4 -26.6 41.7 -2.9 5.6 -6.3 10.7 -7.5 11.3 -2.2 1.3 -14.1 0.9 -46.8 -1.2 -18.3 -1.2 -19.8 -1.2 -22.3 0.5 -1.5 0.9 -3.3 3.1 -4.1 4.9 -0.8 1.8 -4.6 15.6 -8.5 30.7 -3.8 15.1 -8.9 34.7 -11.4 43.5 -4.3 15.6 -4.4 16.1 -2.7 19 1.3 2.4 6.8 5.6 29.5 17 15.3 7.7 29.5 15.4 31.5 17.1 l3.6 3.1 0.7 20.4 c0.3 11.2 0.9 24.3 1.3 29 1.3 14.7 1.6 14.2 -15.3 26.7 -8.1 6 -20 14.6 -26.6 19.2 -6.5 4.6 -12.7 9.7 -13.7 11.4 -1.7 2.9 -1.7 3 1.5 12 14.5 39.9 28.3 75.5 30 77.5 4.4 5 5.6 5 32.9 1.4 32.6 -4.3 39.7 -4.9 42.6 -3.4 1.2 0.7 4.8 5.1 7.9 9.9 8.4 13 14.5 21.2 24.9 33.5 9.2 10.9 9.3 11.1 9.3 16.4 0 6.3 -1.7 10.9 -13.9 38.1 -5 11.1 -9.1 21.2 -9.1 22.3 0 3.8 3.8 7.5 18.2 18 7.9 5.7 23.8 17.4 35.4 26 21.6 16 24.3 17.9 26.5 17.9 0.7 0 12.4 -11 25.9 -24.5 l24.6 -24.5 7 0 c6 0 9 0.8 21.4 5.4 8 3 20.4 7.1 27.5 9.1 20.5 5.7 22.7 6.6 24.6 10 1.1 1.8 3.6 13.8 6.3 29.7 2.5 14.7 5 27.7 5.5 29 1.1 2.8 4.8 6.3 8.1 7.7 1.6 0.7 18.2 1 46.5 0.8 41 -0.2 44.2 -0.3 47.1 -2.1z"/>
  <path d="M382.5 787.9 c-22.8 -1.7 -51 -7.7 -71.7 -15.1 -5.4 -1.9 -5.8 -2.3 -5.8 -5.2 0 -3.1 0.4 -3.4 10.5 -8 27.9 -12.8 70.1 -37.4 99.4 -57.8 38.4 -26.9 64.3 -49.9 84.5 -75.3 14.7 -18.7 21.5 -32.3 24.3 -49.3 1.5 -9.2 1.5 -10.6 -0.1 -19.7 -3 -17.9 -10.7 -30.8 -29 -48.2 -12.6 -12.1 -26.9 -22.1 -62.4 -44 -40.8 -25.1 -56.4 -37.4 -66.2 -52 -5.8 -8.6 -8.5 -16.6 -9.5 -28 l-0.7 -8.3 3.6 0 c2.6 0 3.8 0.5 4.2 1.8 1.3 4.6 5.9 12.4 10.3 17.5 14.5 17.3 35.1 30.2 86.6 54.7 44.9 21.3 65.7 33.3 80.8 46.6 20.5 18 29.8 32.7 36.3 56.9 3.5 13.3 4.4 36.1 2 51.2 -4.3 27.3 -18.9 57.2 -42.3 86.3 -14.6 18.3 -39.8 41.7 -66.1 61.5 -14.6 10.9 -40.7 28.4 -46.7 31.1 -8.3 3.9 -21.7 4.9 -42 3.3z"/>
  <path d="M186.4 620.5 c-3.4 -0.7 -7.9 -2.2 -10 -3.3 -4.8 -2.5 -12.3 -10.2 -15.7 -16.2 -10.5 -18.6 -17.4 -78.5 -13.7 -118.5 8.8 -95.1 58.8 -170 142.3 -213 29.8 -15.4 56.8 -23.8 94.2 -29.2 16.9 -2.4 62.8 -2.4 80.5 0 36.6 5.2 63.5 13.4 91.3 28 l11.7 6.2 0 3.8 0 3.9 -4.2 -0.5 c-2.4 -0.2 -9.2 -1.4 -15.1 -2.6 -32.7 -6.3 -82.4 -8.4 -114.2 -4.7 -74.1 8.5 -134 36.4 -162.9 75.6 -14.1 19.1 -19.1 39.2 -13.7 55.4 6.5 19.8 15.5 30.4 51.6 60.6 31.9 26.7 41.7 38.3 44.6 52.8 1.5 7.7 0.7 18.1 -1.9 24.8 -4.6 12.3 -21.6 31.2 -39.2 43.6 -17.4 12.4 -45 24.7 -66.5 29.9 -19.9 4.7 -46.2 6.2 -59.1 3.4z"/>
  <path d="M952.5 541.4 c-7.2 -3.7 -9.5 -8.1 -9.5 -18.1 0 -5.6 0.4 -7.3 2.7 -10.6 4.1 -5.8 8.6 -7.7 18.8 -7.7 12.6 0 17.6 3.3 19.7 13.1 2.2 10.5 -1.3 19.3 -9.3 23.5 -3.9 2 -18.4 1.9 -22.4 -0.2z"/>
  <path d="M942.4 417.6 c-6.1 -2.8 -11.7 -9.2 -13.4 -15.1 -0.8 -2.7 -1.1 -7.7 -0.8 -12.5 0.6 -9.5 3.7 -15.6 10.7 -20.5 3.8 -2.7 5.2 -3 13.3 -3.4 10.9 -0.4 16.4 1 21.7 5.5 6.2 5.3 8.1 10.4 8.1 21.1 0 13.5 -3.7 20.4 -13.5 24.9 -7.1 3.4 -18.9 3.4 -26.1 0z"/>
  <path d="M940.8 256.5 c-8.8 -4.6 -12.8 -12.3 -12.8 -24.7 0 -9.7 1.9 -14.6 7.5 -20.1 4.6 -4.5 11 -6.7 19.5 -6.7 11.6 0 19.7 4.3 24.5 13.2 2.6 4.6 2.9 6.4 3 13.3 0 9.6 -1.6 14.4 -6.4 19.8 -5.5 6.1 -9.9 7.7 -21.1 7.6 -8.1 0 -10.2 -0.4 -14.2 -2.4z"/>
 </g>
 <g fill="#003959">
  <path d="M377 918.9 c-3.3 -1.4 -7 -4.9 -8.1 -7.7 -0.5 -1.3 -3 -14.3 -5.5 -29 -2.7 -15.9 -5.2 -27.9 -6.3 -29.7 -1.9 -3.4 -4.1 -4.3 -24.6 -10 -7.1 -2 -19.5 -6.1 -27.5 -9.1 -22 -8.2 -17.9 -9.9 -47 19.1 -24.4 24.3 -24.7 24.5 -28.9 24.5 -2.3 0 -5.2 -0.5 -6.3 -1.1 -1.2 -0.6 -11.6 -8.2 -23.2 -16.8 -11.6 -8.6 -27.5 -20.3 -35.4 -26 -15.4 -11.2 -17.8 -13.7 -18.7 -19.7 -0.6 -3.4 0.5 -6.5 9 -25.4 11.1 -24.7 14.5 -33.1 14.5 -36.3 0 -1.5 -3.5 -6.5 -9.3 -13.4 -10.4 -12.3 -16.5 -20.5 -25 -33.6 -3.1 -4.8 -6.8 -9.2 -8.2 -9.9 -1.8 -0.8 -4.3 -0.8 -9.7 0 -4 0.7 -18.1 2.6 -31.3 4.3 -26.5 3.4 -29 3.2 -33.6 -1.8 -3 -3.2 -32.9 -82.3 -33.6 -88.8 -0.6 -6 1.9 -9 15.3 -18.5 29.8 -20.9 41.2 -30 41.9 -33.1 0.4 -1.6 0.2 -8.5 -0.5 -15.2 -0.6 -6.7 -1.2 -18.7 -1.3 -26.6 l-0.2 -14.3 -3.9 -3.4 c-2.1 -1.8 -16.2 -9.5 -31.3 -16.9 -29 -14.5 -31.3 -16.1 -31.3 -22.7 0 -1.5 2.2 -10.7 4.9 -20.5 2.7 -9.8 8.1 -30.1 11.9 -45.1 3.9 -15 7.8 -28.4 8.7 -29.8 3.5 -5.3 5.2 -5.5 38.7 -3.1 23.2 1.6 31.2 1.8 33.1 1 1.6 -0.8 4.3 -4.6 7.9 -11.5 8.2 -15.4 16.1 -27.8 27 -42.3 5.7 -7.5 10 -14.3 10.4 -16.1 0.5 -2.7 -1.5 -7.3 -13.6 -31.1 -8.7 -17.1 -14.4 -29.6 -14.7 -32.1 -0.8 -5.8 1 -9.4 7.6 -15 6.5 -5.6 52.7 -41.8 60.5 -47.5 5.4 -4 11.2 -5.5 16.1 -4.3 1.4 0.4 13.5 9.8 26.8 21 13.4 11.1 25.1 20.7 26.2 21.3 2.3 1.3 4.1 0.8 19.7 -5.5 16.6 -6.8 27.3 -10.4 44.1 -15.2 16.3 -4.7 17.7 -5.7 19.6 -14.6 4.1 -19.4 12.5 -53.2 13.6 -55.5 0.8 -1.4 2.7 -3.5 4.2 -4.5 2.6 -1.8 5.6 -1.9 50.3 -2.2 42.7 -0.2 47.9 -0.1 51.2 1.4 2.1 0.9 4.5 2.8 5.4 4.2 1 1.4 4.5 16.3 8 33.1 5.6 26.9 6.6 30.9 8.7 32.7 1.5 1.3 6.4 3 12.3 4.4 14.3 3.3 31.6 9.2 47.3 16.1 15.8 7.1 18.7 7.3 25.1 1.7 25.3 -21.6 42 -35.7 44 -37.1 1.6 -1.1 4.4 -1.7 8.2 -1.7 l5.8 0 20.8 15.7 c32.9 24.8 51.1 39.3 52.8 41.8 0.8 1.3 1.5 4.6 1.5 7.6 0 4.8 -1.2 8 -11.9 30.4 -14.7 30.9 -14.6 30.7 -13.8 34.9 0.7 3.8 12.7 18.6 15.1 18.6 0.8 0 1.5 0.8 1.5 1.8 0 1.8 -2.2 1.9 -42.2 2.7 -61.3 1.1 -63.7 1.2 -76.2 5.2 -15.7 4.9 -23.4 10.2 -44.3 30.3 -3.6 3.4 -4.9 8.9 -4 16.5 0.6 5.8 2.8 9 8 11.7 3.9 2 5.4 2.1 24.2 1.9 l20.1 -0.1 3.2 4.5 c1.8 2.5 3.2 4.8 3.2 5.1 0 0.3 1.1 2.9 2.4 5.8 2 4.4 3 5.4 5.5 5.9 2.4 0.5 3.1 1.2 3.1 3 l0 2.4 -29.2 0.5 c-26.5 0.4 -29.7 0.6 -33.2 2.3 -5.9 2.9 -8.1 6.5 -8 12.9 0.1 6.6 4 15.5 8 18.3 7.2 5 3 4.8 113.2 5.1 101.9 0.3 103.2 0.3 103.2 2.2 0 2.4 -0.5 2.4 -46.5 2.5 -28.4 0 -29 0 -28.8 2 0.1 1.1 0.5 6.2 0.9 11.3 l0.7 9.2 -3.6 0 c-5.6 0 -11.5 2.8 -13.5 6.4 -1.3 2.4 -1.7 5.5 -1.7 13.1 0.1 11.6 1.3 14.9 6.5 17.9 3.4 2 5.3 2.1 58 2.6 50 0.5 54.8 0.6 57.3 2.3 3.7 2.4 4.1 4.9 3.3 19.7 -0.6 10.6 -0.5 13.4 0.8 15.8 1.1 2.1 5.4 5.2 14.8 10.7 16.6 9.7 38.8 23.2 40.8 24.8 3.1 2.4 5 6.2 5 10.2 0 2.5 -5.2 19.3 -14 45.5 -15.1 44.6 -15.8 46.1 -23.2 48.1 -4 1 -18.8 0.3 -49.4 -2.7 -21.4 -2 -20.8 -2.3 -29.8 12.9 -7.2 12.2 -18.6 27.9 -28.1 38.7 -6 6.9 -7.5 9.6 -7.5 13.6 0 1.4 5 14 11 28.1 11.6 27 12.7 31.1 9.6 37.2 -0.8 1.5 -8.5 8.1 -17.2 14.7 -8.6 6.5 -24 18.3 -34.3 26.2 -10.2 7.8 -21 15.4 -23.9 16.9 -8.8 4.3 -9.3 4 -37.8 -24.2 -20.6 -20.5 -25.1 -24.5 -27.5 -24.5 -1.6 0 -7.7 1.9 -13.6 4.1 -16.4 6.3 -37.7 13.3 -48.3 16 -15.1 3.7 -14.1 2.1 -21 36.6 -3.3 16 -6.4 30 -7.1 31.1 -0.7 1.1 -2.6 2.8 -4.3 3.8 -2.9 1.8 -6.2 1.9 -50.1 2.1 -30.3 0.2 -47.9 -0.1 -49.5 -0.8z m30.5 -133.9 c11.4 -1.3 15.2 -3.1 34.7 -16.2 30.2 -20.4 52.7 -38.4 72.3 -58.2 34.8 -35 56.3 -72.2 62.1 -107.4 2.3 -13.9 1.4 -32.4 -2.1 -45.7 -6.4 -24.1 -15.7 -38.8 -36.2 -56.9 -15.1 -13.3 -35.9 -25.3 -80.8 -46.6 -50.2 -23.9 -71.1 -36.9 -85.8 -53.6 -4.6 -5.1 -10.7 -15.2 -10.7 -17.5 0 -1 -0.4 -2 -0.8 -2.3 -0.5 -0.3 -0.7 1.8 -0.5 4.7 0.4 4.6 0.2 5 -0.9 3.2 -0.9 -1.4 -1.3 -6.1 -1.3 -15.5 l0 -13.6 3.8 -7.6 c11.2 -22.8 45.9 -46.4 89.7 -61.1 23.1 -7.8 44.8 -11.8 76.9 -14.2 15.6 -1.2 19.5 -1.2 25.5 0 3.9 0.7 7.9 1.6 8.9 2 0.9 0.4 1.7 0.3 1.7 -0.2 0 -1.3 -22.3 -12.7 -35 -17.8 -20.4 -8.2 -41 -13.4 -68 -17.1 -17.5 -2.5 -57.8 -2.5 -74.5 -0.1 -62.5 9 -112.5 32.3 -156.7 72.8 -50.4 46.2 -80.8 118.8 -80.8 193 0 32.6 7.1 75.3 14.7 88.9 3.4 5.9 10.8 13.7 15.7 16.2 4.2 2.2 15.2 4.8 20.4 4.8 2.7 0 5 1.4 11.7 7.3 8.1 6.9 8.4 7.4 8.5 11.5 l0 4.2 -7.2 0 c-5.4 0 -7.6 -0.4 -9.1 -1.7 -2 -1.9 -1.3 -2.5 -10.2 8 -2.1 2.4 -1.9 3.1 1.6 5.8 1.7 1.3 4.2 3.4 5.5 4.6 1.8 1.7 3.7 2.3 7 2.3 3.1 0 4.4 0.4 4.4 1.4 0 0.8 0.7 1.6 1.5 2 1.1 0.4 1.5 2 1.5 5.6 0 2.7 0.5 5 1 5 0.6 0 1 0.7 1 1.5 0 0.9 2.6 3.9 5.7 6.8 3.2 2.9 7.8 7.3 10.3 10 3.5 3.6 5.3 4.7 7.7 4.7 2.3 0 5 1.7 11.8 7.6 11.5 9.8 11.6 9.9 15.1 7.1 4.1 -3.2 15.6 -3.8 18.7 -0.9 1.2 1.1 4.1 2.3 6.4 2.7 4.3 0.7 5.3 2 6.8 8.6 0.6 2.4 3.2 6.1 7.8 11 0.9 1.1 1.7 2.4 1.7 3 0 0.6 0.3 0.9 0.8 0.7 0.4 -0.2 2.8 -1.4 5.5 -2.6 2.6 -1.3 4.7 -2.7 4.7 -3.2 0 -2.5 11.2 0 14.8 3.3 1 0.9 2.6 1.7 3.5 1.7 1.1 0 1.7 0.8 1.7 2.5 0 2 0.5 2.5 2.5 2.5 1.5 0 2.5 0.6 2.5 1.4 0 0.8 0.5 1.6 1.2 1.8 3.3 1.1 -1.9 4.7 -19.2 13.2 l-19.1 9.3 5.8 2.1 c20.8 7.4 49 13.4 71.8 15.1 5.5 0.5 10.7 0.9 11.5 0.9 0.8 0.1 5.5 -0.3 10.5 -0.8z"/>
 </g>
 <g fill="#0982aa">
  <path d="M439 686.1 c-1.4 -0.9 -2.6 -1.9 -2.8 -2.3 -0.2 -0.4 -1.9 -2.4 -3.8 -4.5 -1.9 -2.1 -4.1 -5 -5 -6.5 -0.8 -1.6 -2.3 -2.8 -3.4 -2.8 -1 0 -2.1 -0.8 -2.5 -1.9 -0.3 -1 -1.7 -3.1 -3.2 -4.7 -1.4 -1.5 -3.9 -4.6 -5.4 -6.7 -1.6 -2.1 -6.2 -6.6 -10.4 -10 -4.1 -3.3 -7.5 -6.6 -7.5 -7.3 0 -1.9 -5 -5.4 -7.6 -5.4 -1.2 0 -2.6 -0.5 -2.9 -1 -0.4 -0.6 -2.9 -2.9 -5.7 -5 -3.8 -3.1 -5.9 -4 -8.8 -4 -2.4 0 -4 -0.5 -4.4 -1.5 -0.3 -0.8 -1.2 -1.5 -2 -1.5 -0.7 0 -1.6 -1 -2 -2.2 -0.9 -3.8 -6.5 -9.8 -9 -9.8 -1.2 0 -3.3 -1.2 -4.7 -2.6 -1.3 -1.4 -3.7 -3.3 -5.2 -4.1 -1.6 -0.8 -3.5 -2.9 -4.3 -4.8 -0.7 -1.8 -1.8 -3.6 -2.4 -4 -0.5 -0.3 -1 -1.9 -1 -3.5 0 -3.2 -5.1 -7.9 -11.4 -10.5 -2 -0.9 -3.6 -1.9 -3.6 -2.3 0 -0.4 4 -4.8 8.8 -9.8 18 -18.4 24.1 -31.7 21.2 -46 -2.9 -14.2 -12.9 -26 -44.5 -52.4 -36.1 -30.2 -45 -40.6 -51.7 -60.6 -3.2 -9.6 -3.2 -23.9 0.1 -34.4 12.4 -40.4 56.3 -73.6 121.5 -92.1 31.6 -8.9 58.7 -12.3 98.6 -12.2 29.7 0 44 1.1 71.5 5.5 l14 2.2 -23 1.7 c-37 2.7 -58.2 6.4 -82.5 14.6 -47.3 15.8 -82.7 41.3 -92 66.1 -1.6 4.2 -2 7.9 -2.1 17.5 -0.1 15.1 1.9 22.3 9.1 33 9.8 14.6 25.4 26.9 66.2 52 35.5 21.9 49.8 31.9 62.4 44 12.5 12 18.5 19.6 23.5 30.3 4 8.5 6.9 21.4 6.9 30.9 0 7.8 -2.7 22 -5.7 29.4 -9.5 24.3 -38.7 57.9 -74.9 86.2 -5.7 4.5 -6 4.6 -8.4 3z"/>
  <path d="M532.7 341.9 c3.1 -5.4 15.5 -16.2 22.8 -20 14.3 -7.5 29.5 -10.7 52 -10.8 6.1 0 18.6 -0.4 27.9 -0.7 l16.9 -0.7 -0.7 6.6 c-0.3 3.6 -1.3 7.8 -2.1 9.4 -0.8 1.5 -1.5 4.2 -1.5 6 l0 3.1 -44.2 0.4 c-41.4 0.4 -44.8 0.6 -52 2.6 -4.2 1.1 -10.1 3.2 -13.1 4.6 -7.2 3.4 -8.3 3.4 -6 -0.5z"/>
 </g>
 <g fill="#026b94">
  <path d="M391 718.2 c-1.4 -0.9 -2.8 -2.1 -3.2 -2.7 -0.4 -0.5 -1.3 -1.8 -2 -2.9 -3.9 -5.6 -5.1 -6.6 -7.9 -6.6 -1.6 0 -3.7 -0.7 -4.6 -1.5 -11.5 -9.8 -11.4 -9.8 -17.9 -4.9 -1.7 1.3 -4.3 2.4 -5.8 2.4 -3.1 0 -8.6 -5.1 -8.6 -8 0 -1 -0.4 -2.2 -1 -2.5 -0.5 -0.3 -1.7 -2.3 -2.6 -4.3 -1 -2 -5.6 -7.5 -10.3 -12.2 l-8.6 -8.5 -5.5 0.3 -5.5 0.3 -7.5 -6.7 c-4.1 -3.7 -7.7 -7.7 -7.8 -8.8 -0.2 -1.2 -0.8 -2.5 -1.3 -3 -0.5 -0.6 -0.9 -1.8 -0.9 -2.8 0 -1 -0.4 -1.8 -1 -1.8 -0.5 0 -1 -0.9 -1 -2 0 -1.4 -0.7 -2 -2.4 -2 -2 0 -2.4 -0.6 -3 -4.7 -0.3 -2.6 -0.3 -6.7 0 -9.2 0.6 -4.4 0.4 -4.8 -3.8 -9.1 -4.5 -4.7 -7.8 -9.2 -7.8 -10.9 0 -0.5 4.2 -3 9.3 -5.4 13 -6.1 22.3 -11.7 32.8 -19.6 l9.1 -6.8 4.1 2 c7.3 3.4 11.7 7.5 11.7 10.7 0 1.6 0.5 3.2 1 3.5 0.6 0.4 1.7 2.2 2.4 4 0.8 1.9 2.7 4 4.3 4.8 1.5 0.8 3.9 2.7 5.2 4.1 1.4 1.4 3.5 2.6 4.7 2.6 2.5 0 8.1 6 9 9.8 0.4 1.2 1.3 2.2 2 2.2 0.8 0 1.7 0.6 2 1.4 0.4 1 1.3 1.2 3.2 0.7 2.2 -0.7 3.7 0 8.2 3.5 3.1 2.3 6.2 4.9 6.9 5.8 0.7 0.9 2.4 1.6 3.6 1.6 2.6 0 7.5 3.5 7.5 5.4 0 0.7 3.4 4 7.5 7.3 4.2 3.4 8.8 7.9 10.4 10 1.5 2.1 4 5.2 5.4 6.7 1.5 1.6 2.9 3.7 3.2 4.7 0.4 1.1 1.5 1.9 2.5 1.9 1.1 0 2.6 1.2 3.4 2.8 0.9 1.5 3.1 4.4 5.1 6.6 1.9 2.1 3.5 4.1 3.5 4.5 0 0.5 1.1 1.3 2.5 1.9 1.4 0.6 2.5 1.6 2.5 2.1 0 1.8 -47.2 35.2 -49.5 35 -0.6 0 -2.1 -0.8 -3.5 -1.7z"/>
  <path d="M956.6 563.9 c-13.7 -2 -28.2 -12.7 -32.3 -23.9 l-2.1 -5.5 -14.5 -0.6 c-14.4 -0.5 -14.7 -0.6 -22.4 -4.4 -7.1 -3.5 -10 -6 -33.3 -29.1 -16.5 -16.3 -26.8 -25.8 -29.2 -26.8 -2.8 -1.2 -7.3 -1.6 -17.6 -1.6 -7.7 0 -16.6 -0.3 -20 -0.6 l-6.1 -0.7 -0.6 -3.8 c-0.4 -2.2 -1.1 -3.9 -1.6 -3.9 -0.5 0 -0.9 -1.6 -0.9 -3.5 0 -1.9 0.5 -3.5 1 -3.5 0.6 0 1 -1.8 1 -4 0 -2.8 0.4 -4 1.4 -4 0.8 0 1.6 -0.7 2 -1.5 0.4 -1.3 3.8 -1.5 21.4 -1.5 33.5 0 33.6 0 63.8 32 12.5 13.2 24.7 25.4 27.2 27 4.4 2.9 4.9 3 16.8 3 l12.2 0 2.1 -3.4 c5.9 -9.4 19.1 -17.8 31.7 -19.8 19.8 -3.3 42.1 8.2 48.4 24.9 11.4 30.4 -14.7 60.1 -48.4 55.2z m14.7 -25 c7.7 -4 11.6 -11.7 9.6 -19.1 -2 -7.9 -7.5 -11.8 -16.4 -11.8 -13.4 0 -21.9 11.1 -17.1 22.3 2.6 6.1 8.6 9.7 16.4 9.7 2.9 0 6.3 -0.5 7.5 -1.1z"/>
  <path d="M943.3 441.5 c-14.5 -3.1 -28 -13.9 -34.8 -27.7 l-3.8 -7.8 -116.6 0 c-77.2 -0.1 -118.1 -0.4 -121.1 -1.1 -2.5 -0.6 -9 -1.4 -14.6 -1.9 -5.5 -0.4 -11.1 -1.3 -12.2 -1.9 -2.8 -1.5 -3.6 -4.8 -2.7 -11.6 0.5 -4.5 0.4 -5.6 -0.9 -6.1 -0.9 -0.3 -1.6 -1.5 -1.6 -2.5 0 -1.9 2.6 -1.9 134.8 -1.7 l134.8 0.3 3.8 -7.8 c9.5 -19.9 31.7 -32.1 52.6 -28.8 19.8 3 36.9 18.1 42 37.1 0.7 2.5 1.2 8.2 1.2 12.7 0 13.6 -4.6 24.6 -14.5 34.7 -7.2 7.3 -15.8 12.1 -25.6 14.2 -8 1.7 -12.7 1.7 -20.8 -0.1z m22.2 -26.9 c8.9 -4.1 13.5 -11.6 13.5 -21.9 0 -14.8 -11.3 -24.6 -27 -23.5 -18.4 1.3 -27.5 24.5 -15.2 38.9 7.3 8.5 18.9 11.1 28.7 6.5z"/>
  <path d="M639 333.6 c0 -1.1 1 -1.6 3 -1.6 2.7 0 3 -0.3 3 -3.1 0 -1.7 0.6 -4.5 1.4 -6.2 2.5 -5.7 2.6 -9 0.3 -10.9 -1.9 -1.7 -1.7 -1.8 6.9 -1.8 17.9 0 75 -1.1 79.5 -1.5 2.6 -0.2 6.8 -1.4 9.3 -2.6 8 -3.7 9.7 -5.5 67.2 -69.5 8.5 -9.4 15.7 -13.8 25.4 -15.3 3.6 -0.6 20.7 -1.1 38.1 -1.1 l31.6 0 2.2 -5.7 c11.6 -30.2 48.2 -42.1 74.9 -24.3 14.7 9.8 22.4 24.4 22.4 42.5 0.1 38.1 -40.1 61.6 -74.3 43.4 -8.1 -4.3 -17.3 -13.9 -21.2 -22.1 l-3.2 -6.7 -31.5 0 c-18.9 -0.1 -33 0.3 -35.2 0.9 -3.2 0.9 -7.5 5.2 -27.1 27.3 -39.9 44.7 -47.3 51.2 -64.2 56.8 -6.9 2.3 -7.8 2.3 -57.7 2.7 -45.5 0.3 -50.8 0.2 -50.8 -1.2z m326.5 -79.5 c12.4 -5.8 17.5 -21 11 -33 -7.8 -14.2 -26.7 -17.4 -38 -6.4 -11.9 11.6 -9.2 31.2 5.3 38.8 6 3.1 15.7 3.4 21.7 0.6z"/>
 </g>
 <g fill="#005175">
  <path d="M343.3 748.3 c-0.7 -0.2 -1.3 -1 -1.3 -1.7 0 -0.7 -1 -1.2 -2.2 -1.2 -1.8 0.1 -2.4 -0.5 -2.6 -2.6 -0.2 -1.8 -0.9 -2.8 -1.9 -2.8 -0.9 0 -2.5 -0.8 -3.5 -1.7 -2.1 -1.9 -8.8 -4.5 -8.8 -3.3 0 1 -12 7 -14.2 7 -1 0 -2.2 -0.8 -2.5 -1.7 -0.4 -0.9 -1.4 -2.4 -2.2 -3.4 -4.5 -4.8 -7 -8.4 -7.6 -10.8 -1.5 -6.6 -2.5 -7.9 -6.8 -8.6 -2.3 -0.4 -5.2 -1.6 -6.4 -2.7 -2.8 -2.6 -8.9 -2 -12.9 1.1 -3.2 2.5 -8.1 2.7 -11.4 0.4 -1.4 -1 -6 -4.8 -10.4 -8.5 -6 -5.2 -8.6 -6.8 -10.9 -6.8 -2.4 0 -4.2 -1.1 -7.7 -4.7 -2.5 -2.7 -7.1 -7.1 -10.3 -10 -3.1 -2.9 -5.7 -5.9 -5.7 -6.7 0 -0.7 -0.6 -1.6 -1.3 -1.9 -0.8 -0.3 -1.2 -2 -1 -5.1 0.2 -3.4 -0.1 -4.8 -1.2 -5.2 -0.8 -0.4 -1.5 -1.2 -1.5 -2 0 -1.6 -2.6 -1.9 -3.5 -0.4 -1.1 1.7 -2.9 1.1 -7.4 -2.8 -10.6 -9 -11.2 -9.7 -10 -13.1 0.6 -1.7 1.5 -3.1 2 -3.1 0.5 0 1.5 -1.2 2.4 -2.7 0.8 -1.6 3 -4.6 4.9 -6.7 l3.4 -3.9 4 3.1 c3 2.4 5 3.2 8.2 3.2 3 0 4.1 -0.4 3.8 -1.4 -0.2 -0.7 -4.3 -4.8 -9.3 -9.1 -5 -4.3 -9.1 -8.2 -9.3 -8.7 -0.2 -0.4 2.8 -0.8 6.7 -0.8 16.4 0 42.9 -5.2 60.6 -12 l8 -3 1.5 2.1 c0.8 1.2 2.6 3.4 4 4.8 6.7 7.1 7.3 8.1 7.5 12.3 0.2 2.4 -0.1 5 -0.6 5.9 -0.6 1.2 -0.4 2.1 0.7 3 1 0.8 1.2 1.5 0.4 2.3 -1.7 1.7 -1.2 2.4 1.5 1.8 2.2 -0.4 2.5 -0.1 2.5 2.2 0 1.4 0.5 2.6 1 2.6 0.6 0 1 0.8 1 1.8 0 1 0.4 2.2 0.9 2.7 0.5 0.6 1.1 1.9 1.3 3.1 0.1 1.1 3.7 5.1 7.8 8.8 6.8 6.1 7.8 6.6 10.8 6.1 1.8 -0.4 3.9 -0.8 4.6 -1.1 1.8 -0.7 19.9 17.3 22 21.8 0.9 2 2.1 4 2.6 4.3 0.6 0.3 1 1.5 1 2.5 0 1.1 1.3 3.2 2.9 4.9 l2.8 2.9 2.9 -2.2 c1.6 -1.2 4.8 -3 7.1 -4 l4.3 -1.9 5.2 4.7 c2.9 2.5 6.1 5.3 7.1 6.1 0.9 0.8 3 1.5 4.6 1.5 2.8 0 4 1 7.9 6.6 0.7 1.1 1.6 2.4 2 2.9 0.4 0.6 1.9 1.8 3.5 2.8 1.5 1 2.7 2.1 2.7 2.6 0 1.7 -50 31.5 -52.1 31 -0.2 0 -1 -0.3 -1.6 -0.6z"/>
  <path d="M671.1 470.3 c-1.1 -1.2 -1.2 -2 -0.2 -3.5 0.6 -1 0.8 -2.4 0.4 -3.1 -0.4 -0.7 -0.6 -2.3 -0.5 -3.7 0.2 -1.4 -0.1 -4.4 -0.6 -6.7 -1.8 -7.8 -2.8 -7.6 30.2 -7.3 16 0.1 42.8 -0.1 59.6 -0.5 26.8 -0.7 30.3 -0.6 29 0.6 -0.8 0.9 -2.3 1.8 -3.2 2.2 -1 0.3 -1.8 1.1 -1.8 1.7 0 0.5 -0.7 1 -1.5 1 -1.1 0 -1.5 1.1 -1.5 4 0 2.5 -0.5 4 -1.2 4 -1 0 -1 0.2 -0.1 0.8 0.6 0.4 1.4 2.4 1.8 4.4 0.7 3.5 0.9 3.7 4.8 4 3 0.2 4.3 0.8 4.5 2.1 0.3 1.6 -3 1.7 -59 1.7 -52.9 -0.1 -59.5 -0.2 -60.7 -1.7z"/>
  <path d="M591.2 404.5 c-0.7 -0.8 -2.2 -1.5 -3.3 -1.5 -1.4 0 -2.6 -1.5 -4.4 -5.4 -1.4 -3 -2.5 -5.7 -2.5 -6 0 -0.3 -1.4 -2.6 -3.2 -5.1 l-3.2 -4.5 -11 -0.2 c-8.5 -0.1 -9.7 -0.3 -5.1 -0.7 l6 -0.5 -6.5 -0.6 c-3.6 -0.3 12.9 -0.6 36.6 -0.7 23.7 0 43.7 0.3 44.4 0.7 0.8 0.5 1.9 2.7 2.6 4.9 0.9 3.3 0.9 4.4 -0.3 6.1 -1.8 2.5 -0.9 5.6 2 7.2 1.2 0.6 6.4 1.3 11.5 1.4 5.1 0.2 9.8 0.6 10.4 1 0.7 0.5 2.8 1 4.8 1.4 2.2 0.3 3.6 1.2 3.8 2.3 0.3 1.6 -2.3 1.7 -40.5 1.7 -34.5 -0.1 -41 -0.3 -42.1 -1.5z"/>
 </g>
</svg>